<svg width="132" height="30" viewBox="0 0 132 30" fill="none" xmlns="http://www.w3.org/2000/svg">
  <rect x="1" y="1" width="28" height="28" rx="8" fill="#0B6BFF"/>
  <path d="M8.5 8.5H13.7L16.1 13.1L18.5 8.5H23.5V21.5H19.7V14.5L16.1 21L12.3 14.5V21.5H8.5V8.5Z" fill="white"/>
  <path d="M42.3 10.2L46.3 18L50.4 10.2H53.7V22H51.3V14.3L47.1 22H45.4L41.2 14.3V22H38.8V10.2H42.3Z" fill="#121B2F"/>
  <path d="M56.1 16.8C56.1 13.6 58.3 11.4 61.5 11.4C64.7 11.4 66.9 13.6 66.9 16.8C66.9 20 64.7 22.2 61.5 22.2C58.3 22.2 56.1 20 56.1 16.8ZM64.5 16.8C64.5 14.8 63.3 13.5 61.5 13.5C59.7 13.5 58.5 14.8 58.5 16.8C58.5 18.8 59.7 20.1 61.5 20.1C63.3 20.1 64.5 18.8 64.5 16.8Z" fill="#121B2F"/>
  <path d="M71.5 11.6C73.9 11.6 75.6 12.7 76.2 14.6L73.9 15.1C73.5 14.2 72.7 13.7 71.5 13.7C70.4 13.7 69.7 14.1 69.7 14.8C69.7 15.4 70.2 15.8 71.4 16L72.8 16.3C75.1 16.7 76.4 17.7 76.4 19.4C76.4 21.2 74.7 22.3 72 22.3C69.3 22.3 67.5 21.2 66.9 19.2L69.3 18.6C69.7 19.6 70.6 20.2 72.1 20.2C73.3 20.2 74 19.8 74 19.1C74 18.5 73.5 18.1 72.4 17.9L70.8 17.6C68.6 17.2 67.3 16.2 67.3 14.6C67.3 12.8 68.9 11.6 71.5 11.6Z" fill="#121B2F"/>
  <path d="M81.1 11.6C83.5 11.6 85.2 12.7 85.8 14.6L83.5 15.1C83.1 14.2 82.3 13.7 81.1 13.7C80 13.7 79.3 14.1 79.3 14.8C79.3 15.4 79.8 15.8 81 16L82.4 16.3C84.7 16.7 86 17.7 86 19.4C86 21.2 84.3 22.3 81.6 22.3C78.9 22.3 77.1 21.2 76.5 19.2L78.9 18.6C79.3 19.6 80.2 20.2 81.7 20.2C82.9 20.2 83.6 19.8 83.6 19.1C83.6 18.5 83.1 18.1 82 17.9L80.4 17.6C78.2 17.2 76.9 16.2 76.9 14.6C76.9 12.8 78.5 11.6 81.1 11.6Z" fill="#121B2F"/>
</svg>
